<?xml version="1.0" encoding="UTF-8"?>
<svg xmlns="http://www.w3.org/2000/svg" version="1.1" viewBox="0 0 595.28 841.89">
  <defs>
    <style>
      .cls-1 {
        fill: #eda342;
      }

      .cls-2 {
        fill: #afb2bd;
      }

      .cls-3 {
        fill: #f38520;
      }

      .cls-4 {
        fill: #1e1f37;
      }

      .cls-5 {
        fill: #c1c2cd;
      }

      .cls-6 {
        fill: #9e9fa2;
      }

      .cls-7 {
        fill: #1f1f36;
      }

      .cls-8 {
        fill: #bfc0ce;
      }

      .cls-9 {
        fill: #f18321;
      }

      .cls-10 {
        fill: #fff;
      }

      .cls-11 {
        fill: #eb9d3a;
      }

      .cls-12 {
        fill: #e89633;
      }

      .cls-13 {
        fill: #d2d3e4;
      }

      .cls-14 {
        fill: #1c1f32;
      }

      .cls-15 {
        fill: #fdfefd;
      }

      .cls-16 {
        fill: #fbf5e5;
      }

      .cls-17 {
        fill: #c7c7d3;
      }

      .cls-18 {
        fill: #76768b;
      }

      .cls-19 {
        fill: #e18726;
      }

      .cls-20 {
        fill: #414358;
      }

      .cls-21 {
        fill: #f6851f;
      }

      .cls-22 {
        fill: #1f2028;
      }

      .cls-23 {
        fill: #f3f4f2;
      }

      .cls-24 {
        fill: #cfd0d8;
      }

      .cls-25 {
        fill: #1d1f38;
      }

      .cls-26 {
        fill: #f28421;
      }

      .cls-27 {
        fill: #de8727;
      }

      .cls-28 {
        fill: #c7c9d2;
      }

      .cls-29 {
        fill: #eb9d3b;
      }

      .cls-30 {
        fill: #ef9528;
      }

      .cls-31 {
        fill: #d0d1da;
      }

      .cls-32 {
        fill: #d0d2d6;
      }
    </style>
  </defs>
  <!-- Generator: Adobe Illustrator 28.6.0, SVG Export Plug-In . SVG Version: 1.2.0 Build 709)  -->
  <g>
    <g id="Layer_1">
      <g>
        <path class="cls-25" d="M173.62,350.55c.81-13.95,4.3-27.24,10.37-39.78,17.14-35.45,44.77-58.2,82.99-67.89,7.77-1.97,15.72-2.89,23.74-3.06,2.78.37,5.55.36,8.33,0,20.9.74,40.52,6.01,58.65,16.56-.76,2.44-2.76,1.63-4.27,1.42-4.94-.68-9.95-.89-14.85-1.84-6.96-1.35-13.88-.39-20.81.09-15,1.05-28.89,5.72-41.66,13.54-16.39,10.04-28.46,23.99-36.5,41.43-5.81,12.61-8.99,26-11.58,39.55,0,14.63,0,29.26,0,43.89-.02,50.98-.03,101.96-.05,152.94,0,7.55.2,15.1-.08,22.64-.5,13.61-8.25,23.54-20.91,27.26-15.25,4.49-33.01-8.1-33.38-23.67-.09-11.35-.05-22.71-.05-34.06,0-60.6.01-121.2-.04-181.8,0-2.41.65-4.82.09-7.23Z"/>
        <path class="cls-6" d="M228.04,350.58c1.04-13.08,4.39-25.61,9.68-37.54,13.2-29.76,35.64-48.8,67.47-56.06,11.77-2.69,23.84-3.57,35.95-1.58,4.45.73,8.96,1.18,13.45,1.66,1.05.11,2.35.68,3.13-.69,3.8,2.58,7.73,4.99,11.37,7.78,25.46,19.48,41.89,44.89,47.43,76.47,5.69,32.4-1.43,62.39-20.22,89.51-9.11,13.15-20.64,23.76-33.96,32.5-1.23.81-2.37,1.97-4.09,1.46-1.02-1.51,0-2.65.76-3.78,11.08-16.26,17.65-34.19,19.78-53.73,1.54-14.06-.37-27.78-4.2-41.29-.54-1.89-.78-3.86-1.6-5.67-1.36-32.04-16.5-54.91-46.13-67.26-32.74-13.65-70.83-.12-88.64,30.6-4.3,7.42-7.02,15.37-8.95,23.66-.31,1.34-.81,2.64-1.23,3.95Z"/>
        <path class="cls-25" d="M372.99,359.62c3.47,5.27,4.26,11.42,5.36,17.37,5.65,30.59-1.69,58.39-18.67,83.99-.65.98-1.25,1.94-1.44,3.12-16.2,10.12-34.37,13.44-52.95,15.33-10.5,1.06-21.04,1.92-30.86,6.32-11.25,5.05-19.4,12.95-22.96,25.06-.16.53-.47,1.01-1.06,2.26v-99.98c1.32-.36,2.07.72,2.91,1.41,21.34,17.56,45.37,22.88,71.28,13.16,27.01-10.14,42.93-30.28,47.42-59.05.46-2.97.66-5.99.98-8.99Z"/>
        <path class="cls-25" d="M300.3,408.48c-27.83-.06-50.24-22.54-50.15-50.31.09-27.73,22.77-50.32,50.38-50.18,27.77.14,50.24,22.74,50.14,50.42-.1,27.83-22.54,50.13-50.38,50.07Z"/>
        <path class="cls-14" d="M173.62,350.55c1.07,1.06.63,2.41.63,3.64.02,71.94.02,143.88,0,215.82,0,1.22.44,2.58-.63,3.64-.81-2.23-.75-4.57-.75-6.88,0-69.07,0-138.15,0-207.22,0-3.02,0-6.04.74-8.99Z"/>
        <path class="cls-22" d="M299.05,239.82c-2.78.88-5.55.91-8.33,0,2.78,0,5.55,0,8.33,0Z"/>
        <path class="cls-10" d="M199.83,589.05c-9.87-.02-17.79-8.03-17.79-17.99,0-10.53,7.75-18.26,18.25-18.21,10.07.05,18.27,8.16,18.24,18.05-.03,10.53-7.9,18.17-18.7,18.15Z"/>
        <path class="cls-15" d="M275.02,343.06c10.02-8.33,21.09-5.96,26.47,5.72.53,1.16.92,1.91,2.46,1.66,1.34-.21,2.76.08,4.14.16.44.27.48.68.4,1.14-.25.66-.78,1.17-1.04,1.83-.13.25-.3.47-.5.66-3.14-.46-4.61.44-5.2,4.03-1.06,6.5-7.69,11.37-14.67,11.63-6.97.26-13.59-4.38-15.65-10.98-.31-.99-.64-1.97-.96-2.95-.71-.91-.86-1.93-.61-3.03.45-1.59,1.11-3.14,1.25-4.82.06-.32.15-.63.27-.93,1.01-1.56,1.8-3.31,3.65-4.13Z"/>
        <path class="cls-26" d="M309.52,349.08c2.01-4.58,5.62-6.82,10.51-6.78,4.9.03,8.45,2.41,10.55,6.88.44.94.88,1.87,1.32,2.81,1.02,1.36,1.03,2.72,0,4.09-3.17,7.25-6.84,10.24-12.62,9.76-4.45-.37-8.16-2.19-9.78-6.81-1.05-3.31-1.24-6.63.01-9.94Z"/>
        <path class="cls-9" d="M270.57,352.76c-.04,1.07-.07,2.14-.11,3.21-2.15-1.07-4.42-1.95-6.4-3.27-1.72-1.15-2.98-2.9-3.3-5.07-.13-.88-.32-2.16.15-2.63.82-.83,1.83.13,2.72.55.93.44,2.01.7,2.77,1.33,2.17,1.82,3.46,1.51,4.01-1.33.92.56.74,1.61,1.07,2.43-.16,1.62-.67,3.17-.91,4.77Z"/>
        <path class="cls-23" d="M331.91,356.07c0-1.36,0-2.72,0-4.09,1.15,0,2.3-.05,3.45-.02,1.31.04,2.28.61,2.26,2.04-.01,1.39-.93,2.04-2.26,2.07-1.15.03-2.3,0-3.45,0Z"/>
        <path class="cls-19" d="M275.02,343.06c-1.02,1.39-2.04,2.79-3.05,4.18-.96-.45-.65-1.69-1.4-2.27-.09-.92.78-1.33,1.08-2.04,1.25-2.9,2.32-1.99,3.37.12Z"/>
        <path class="cls-27" d="M309.52,349.08c0,3.31,0,6.62-.01,9.94-1.73-1.13-.49-3.86-2.57-4.79-.15-.05-.19-.14-.13-.29.6-.56.7-1.43,1.26-2.02,0-.44,0-.88.01-1.32.48-.51.96-1.01,1.44-1.52Z"/>
        <path class="cls-8" d="M302.59,381.09c-2.3-.23-4.6-.45-6.89-.68-.08-1.26.68-.91,1.36-.71,3.22.07,6.45.15,9.67.22-.88,2.13-2.93.18-4.13,1.17Z"/>
        <path class="cls-32" d="M302.59,381.09c1.15-1.19,3.01.12,4.13-1.17,1.05-.05,2.1-.11,3.15-.16.89-.06,2.01-.99,2.43.66-3.22.49-6.42,1.23-9.71.66Z"/>
        <path class="cls-28" d="M320.74,377.76c-1.79,1.11-3.55,2.35-6.81,1.42,2.56-.92,4.31-1.54,6.05-2.17.27.24.69.32.76.75Z"/>
        <path class="cls-3" d="M270.56,344.97c1.51.11,1.21,1.34,1.4,2.27.07.19.03.35-.1.5-.21.34-.42.35-.65.02-.87-.52-.69-1.41-.8-2.2-.07-.23-.02-.42.15-.59Z"/>
        <path class="cls-17" d="M320.74,377.76c-.25-.25-.51-.5-.76-.75.84-.66,1.67-1.33,2.73-2.17.23,1.87-.86,2.4-1.97,2.92Z"/>
        <path class="cls-18" d="M297.05,379.7c-.45.24-.91.48-1.36.71-.93-.23-1.87-.46-2.8-.69-.23-.09-.31-.19-.26-.32.05-.14.11-.21.18-.21,1.43.03,2.92-.41,4.24.51Z"/>
        <path class="cls-24" d="M312.3,380.43c-.66-.78-1.58-.58-2.43-.66,1.46-.61,2.88-.95,4.26.66h-1.83Z"/>
        <path class="cls-20" d="M292.81,379.19c0,.18.03.36.08.53-.68.08-1.31,0-1.65-.69-.05-.1.11-.43.23-.46.6-.17,1.04.1,1.34.62Z"/>
        <path class="cls-21" d="M276.03,349.09c1-2.7,2.94-4.46,5.53-5.56,3.29-1.14,6.59-1.12,9.88-.02h-.02c.58.76,1.4,1.09,2.28,1.32,8.01,5.92,4.9,17.22-2.21,19.71-3.32,1.39-6.64,1.13-9.96,0-2.57-1.13-4.58-2.8-5.52-5.55-1.11-3.3-1.16-6.6.01-9.9Z"/>
        <path class="cls-29" d="M291.45,343.51c-3.29,0-6.59.01-9.88.02,3.29-2.03,6.58-2.03,9.88-.02Z"/>
        <path class="cls-11" d="M276.03,349.09c0,3.3,0,6.6-.01,9.89-2.06-3.3-2.05-6.6.01-9.89Z"/>
        <path class="cls-30" d="M281.54,364.53c3.32.22,6.64.67,9.96,0-3.32,2.08-6.64,2.07-9.96,0Z"/>
        <path class="cls-1" d="M271.22,347.76c.22,0,.43,0,.65-.02.04,1.79-.41,3.46-1.3,5.02-.49-1.76.23-3.36.64-5Z"/>
        <path class="cls-16" d="M308.07,351.92c-.03.92.65,2.27-1.26,2.02-.11-1-.06-1.91,1.26-2.02Z"/>
        <path class="cls-12" d="M293.72,344.84c-1.13.19-2.16.22-2.28-1.32,1.09-.12,1.72.53,2.28,1.32Z"/>
        <path class="cls-4" d="M311.64,354.11c-.03-4.69,3.66-8.4,8.35-8.39,4.66,0,8.36,3.77,8.31,8.44-.06,4.57-3.58,8.1-8.18,8.18-4.74.09-8.45-3.52-8.48-8.24Z"/>
        <path class="cls-7" d="M286.45,362.35c-4.7-.06-8.32-3.76-8.24-8.43.08-4.61,3.9-8.31,8.49-8.21,4.64.1,8.3,3.87,8.22,8.48-.08,4.67-3.77,8.22-8.46,8.16Z"/>
        <path class="cls-2" d="M320,354.09c-.5.83-.82,1.86-2.74,1.96.73-1.43.72-2.82,2.63-2.88.35.27.38.57.1.91Z"/>
        <path class="cls-13" d="M320,354.09c-.03-.3-.07-.61-.1-.91,2.05-.53,1.51,1.55,2.91,2.25-1.88.43-1.8-1.32-2.8-1.34Z"/>
        <path class="cls-31" d="M284.98,353.75c.45-.74.56-1.92,1.75-1.74.4.06.95.76,1,1.22.13,1.25-1.46.72-1.83,1.54-.78.09-1.18-.17-.91-1.02Z"/>
        <path class="cls-5" d="M284.98,353.75c.3.34.61.68.91,1.02-.48.99-.78,2.22-2.42,1.82-.09-1.29.74-2.04,1.5-2.83Z"/>
      </g>
    </g>
  </g>
</svg>